HIERARCHY
ROOT hip
{
	OFFSET 0.000000 0.000000 0.000000 
	CHANNELS 6 Xposition Yposition Zposition Xrotation Zrotation Yrotation
	JOINT abdomen
	{
		OFFSET 0.000000 0.000000 0.000000 
		CHANNELS 3 Xrotation Zrotation Yrotation
		JOINT chest
		{
			OFFSET 0.000000 4.862840 -1.823974 
			CHANNELS 3 Xrotation Zrotation Yrotation
			JOINT neck
			{
				OFFSET 0.000000 2.209834 -0.380644 
				CHANNELS 3 Xrotation Zrotation Yrotation
				JOINT head
				{
					OFFSET 0.000000 3.388650 0.513082 
					CHANNELS 3 Xrotation Zrotation Yrotation
					End Site
					{
						OFFSET 0.000000 10.033302 0.000000 
					}
				}
			}
			JOINT lCollar
			{
				OFFSET 0.580691 8.059053 0.760605 
				CHANNELS 3 Yrotation Zrotation Xrotation
				JOINT lShldr
				{
					OFFSET 6.222462 0.009832 -0.321848 
					CHANNELS 3 Zrotation Yrotation Xrotation
					JOINT lForeArm
					{
						OFFSET 10.220657 0.024782 0.183730 
						CHANNELS 3 Yrotation Zrotation Xrotation
						JOINT lHand
						{
							OFFSET 10.719483 0.309727 0.636712 
							CHANNELS 3 Zrotation Yrotation Xrotation
							End Site
							{
								OFFSET 10.033305 0.000000 0.000000 
							}
						}
					}
				}
			}
			JOINT rCollar
			{
				OFFSET -0.580691 8.059053 0.760605 
				CHANNELS 3 Yrotation Zrotation Xrotation
				JOINT rShldr
				{
					OFFSET -6.222462 0.009832 -0.321848 
					CHANNELS 3 Zrotation Yrotation Xrotation
					JOINT rForeArm
					{
						OFFSET -10.220657 0.024782 0.183730 
						CHANNELS 3 Yrotation Zrotation Xrotation
						JOINT rHand
						{
							OFFSET -10.719483 0.309727 0.636712 
							CHANNELS 3 Zrotation Yrotation Xrotation
							End Site
							{
								OFFSET -10.033305 0.000000 0.000000 
							}
						}
					}
				}
			}
		}
	}
	JOINT lThigh
	{
		OFFSET 4.361177 -6.202389 -1.775974 
		CHANNELS 3 Xrotation Zrotation Yrotation
		JOINT lShin
		{
			OFFSET -1.317052 -18.333157 1.143369 
			CHANNELS 3 Xrotation Zrotation Yrotation
			JOINT lFoot
			{
				OFFSET -0.636132 -16.703447 -0.302338 
				CHANNELS 3 Xrotation Yrotation Zrotation
				End Site
				{
					OFFSET 0.000000 -2.207327 5.819317 
				}
			}
		}
	}
	JOINT rThigh
	{
		OFFSET -4.361177 -6.202389 -1.775974 
		CHANNELS 3 Xrotation Zrotation Yrotation
		JOINT rShin
		{
			OFFSET 1.317052 -18.333157 1.143369 
			CHANNELS 3 Xrotation Zrotation Yrotation
			JOINT rFoot
			{
				OFFSET 0.636132 -16.703447 -0.302338 
				CHANNELS 3 Xrotation Yrotation Zrotation
				End Site
				{
					OFFSET 0.000000 -2.207327 5.819317 
				}
			}
		}
	}
}
MOTION
Frames: 6
Frame Time: 0.016667
23.654936 49.299156 -46.159931 -5.087890 1.171875 -20.331829 0.000000 0.000000 0.000000 8.339844 -2.832031 -0.986328 10.898437 1.435547 19.384766 -10.439452 -7.109375 -20.801991 -6.220703 -13.886719 7.373047 -49.082031 -6.972657 34.315220 -79.033203 6.367188 3.974609 6.865235 2.509766 34.365662 2.500000 5.097656 8.066406 63.173828 -25.263672 14.042968 52.617184 -0.146484 31.591797 -2.275391 4.482422 -7.988280 -6.140272 6.364429 4.345115 22.504576 -0.237881 13.927720 -7.869864 6.360822 -10.665444 2.848478 -15.383143 -9.903950 17.950647 0.803061 32.029526 -15.894276 -41.229599 2.983258 
23.391470 49.278008 -46.313805 -5.185547 1.406250 -20.527102 0.000000 0.000000 0.000000 8.457030 -2.880859 -0.927734 10.888671 1.347656 19.384764 -10.751954 -7.246094 -20.576170 -6.123047 -14.013672 7.480468 -49.062504 -7.265625 33.789063 -78.964844 6.328125 3.885643 7.158204 2.128906 34.228878 2.607422 5.195313 8.172944 62.919922 -25.087891 14.423828 52.255859 0.009766 31.318357 -2.363281 4.306641 -7.841796 -6.078475 6.506894 4.532015 22.322105 -0.361849 13.815447 -7.601854 6.435911 -10.840566 2.479231 -15.328973 -9.595411 18.626238 0.714222 31.917065 -16.616262 -40.948746 2.342139 
23.133387 49.238228 -46.459045 -5.039063 1.210938 -20.634768 0.000000 0.000000 0.000000 8.554688 -2.529297 -0.830509 10.791015 1.572266 19.355469 -10.947266 -7.539063 -20.166014 -6.044922 -13.642578 7.636719 -49.492188 -7.265625 32.996811 -78.710938 6.162109 4.051686 7.988281 1.601562 33.505859 2.744141 5.722657 8.251954 62.138672 -24.882813 15.107422 52.148438 0.292969 30.703125 -2.470703 3.779324 -7.616598 -6.347383 7.167471 4.895824 22.762831 -0.353798 13.348199 -7.873400 5.590128 -11.124979 2.147740 -14.861969 -9.263422 19.099939 0.740567 31.696177 -17.076958 -40.497936 1.879269 
22.875296 49.198570 -46.604298 -4.882813 1.035156 -20.751892 0.000000 0.000000 0.000000 8.671875 -2.187500 -0.752331 10.693360 1.777344 19.326473 -11.132813 -7.832031 -19.746096 -5.976562 -13.261719 7.785443 -49.921875 -7.255858 32.205803 -78.457031 6.015625 4.217727 8.828125 1.093750 32.763859 2.880859 6.240181 8.348619 61.357418 -24.667967 15.761719 52.050777 0.585938 30.087893 -2.578125 3.251953 -7.382813 -6.625847 7.834852 5.284823 23.222279 -0.369681 12.876052 -8.177449 4.707562 -11.387863 1.805967 -14.401841 -8.924703 19.546505 0.859328 31.467802 -17.563568 -40.052940 1.277540 
22.618082 49.153408 -46.704624 -4.785157 0.830078 -20.751953 0.000000 0.000000 0.000000 8.808594 -1.826172 -0.683594 10.576172 1.972656 19.238283 -11.250000 -8.007813 -19.306639 -5.966797 -12.841798 7.939454 -50.449219 -6.845703 31.297665 -78.144531 5.791016 4.608390 9.492188 0.468750 31.601599 2.900391 6.621094 8.465672 60.458984 -24.208984 16.669920 51.953125 0.957031 29.189451 -2.216797 2.792969 -7.050306 -6.899925 8.352983 5.425229 23.748981 -0.158807 12.552486 -8.611497 3.348076 -11.781114 1.590067 -13.930116 -8.714180 20.021345 0.978660 31.261028 -18.036909 -39.789253 0.730938 
22.361000 49.108120 -46.804962 -4.677734 0.625000 -20.742188 0.000000 0.000000 0.000000 8.955076 -1.474609 -0.634766 10.449220 2.167969 19.140993 -11.357422 -8.183595 -18.857422 -5.957031 -12.412109 8.107569 -50.986328 -6.445312 30.379763 -77.841797 5.566406 5.008819 10.185547 -0.146484 30.439428 2.929687 7.001954 8.574218 59.580074 -23.730467 17.587891 51.845707 1.318359 28.300461 -1.845703 2.324219 -6.718354 -7.193010 8.899883 5.602278 24.301708 0.074020 12.205294 -9.088655 1.991088 -12.152851 1.364843 -13.497318 -8.488467 20.485743 1.053687 31.000439 -18.501492 -39.550064 0.259381 
